<mxfile host="Electron" agent="Mozilla/5.0 (X11; Linux x86_64) AppleWebKit/537.36 (KHTML, like Gecko) draw.io/27.0.9 Chrome/134.0.6998.205 Electron/35.4.0 Safari/537.36" version="27.0.9">
  <diagram name="Page-1" id="WQCFSBy1PlhBTEmCwODR">
    <mxGraphModel dx="2916" dy="1235" grid="1" gridSize="10" guides="1" tooltips="1" connect="1" arrows="1" fold="1" page="1" pageScale="1" pageWidth="850" pageHeight="1100" math="0" shadow="0">
      <root>
        <mxCell id="0" />
        <mxCell id="1" parent="0" />
        <mxCell id="e2j2CFbtWnUn_Q3QcPCO-54" value="Карта текущего IT-ландшафта" style="shape=table;startSize=30;container=1;collapsible=0;childLayout=tableLayout;strokeColor=default;fontSize=18;fontStyle=1;shadow=0;rounded=1;swimlaneLine=1;fontColor=default;labelBackgroundColor=none;labelBorderColor=none;textShadow=0;" vertex="1" parent="1">
          <mxGeometry x="-230" y="150" width="1490" height="780" as="geometry" />
        </mxCell>
        <mxCell id="e2j2CFbtWnUn_Q3QcPCO-55" value="" style="shape=tableRow;horizontal=0;startSize=0;swimlaneHead=0;swimlaneBody=0;strokeColor=inherit;top=0;left=0;bottom=0;right=0;collapsible=0;dropTarget=0;fillColor=none;points=[[0,0.5],[1,0.5]];portConstraint=eastwest;fontSize=16;" vertex="1" parent="e2j2CFbtWnUn_Q3QcPCO-54">
          <mxGeometry y="30" width="1490" height="107" as="geometry" />
        </mxCell>
        <mxCell id="e2j2CFbtWnUn_Q3QcPCO-56" value="" style="shape=partialRectangle;html=1;whiteSpace=wrap;connectable=0;strokeColor=inherit;overflow=hidden;fillColor=none;top=0;left=0;bottom=0;right=0;pointerEvents=1;fontSize=16;" vertex="1" parent="e2j2CFbtWnUn_Q3QcPCO-55">
          <mxGeometry width="202" height="107" as="geometry">
            <mxRectangle width="202" height="107" as="alternateBounds" />
          </mxGeometry>
        </mxCell>
        <mxCell id="e2j2CFbtWnUn_Q3QcPCO-57" value="&lt;font&gt;Продажи в сети отделений&lt;/font&gt;" style="shape=partialRectangle;html=1;whiteSpace=wrap;connectable=0;strokeColor=#666666;overflow=hidden;fillColor=#f5f5f5;top=0;left=0;bottom=0;right=0;pointerEvents=1;fontSize=16;fontColor=#333333;" vertex="1" parent="e2j2CFbtWnUn_Q3QcPCO-55">
          <mxGeometry x="202" width="202" height="107" as="geometry">
            <mxRectangle width="202" height="107" as="alternateBounds" />
          </mxGeometry>
        </mxCell>
        <mxCell id="e2j2CFbtWnUn_Q3QcPCO-58" value="&lt;font&gt;Продажи через кол-центр&lt;/font&gt;" style="shape=partialRectangle;html=1;whiteSpace=wrap;connectable=0;strokeColor=#666666;overflow=hidden;fillColor=#f5f5f5;top=0;left=0;bottom=0;right=0;pointerEvents=1;fontSize=16;fontColor=#333333;" vertex="1" parent="e2j2CFbtWnUn_Q3QcPCO-55">
          <mxGeometry x="404" width="202" height="107" as="geometry">
            <mxRectangle width="202" height="107" as="alternateBounds" />
          </mxGeometry>
        </mxCell>
        <mxCell id="e2j2CFbtWnUn_Q3QcPCO-67" value="Digital-оповещания клиентов" style="shape=partialRectangle;html=1;whiteSpace=wrap;connectable=0;strokeColor=#666666;overflow=hidden;fillColor=#f5f5f5;top=0;left=0;bottom=0;right=0;pointerEvents=1;fontSize=16;fontColor=#333333;" vertex="1" parent="e2j2CFbtWnUn_Q3QcPCO-55">
          <mxGeometry x="606" width="203" height="107" as="geometry">
            <mxRectangle width="203" height="107" as="alternateBounds" />
          </mxGeometry>
        </mxCell>
        <mxCell id="e2j2CFbtWnUn_Q3QcPCO-70" value="Обслуживание депозитных процессов" style="shape=partialRectangle;html=1;whiteSpace=wrap;connectable=0;strokeColor=#666666;overflow=hidden;fillColor=#f5f5f5;top=0;left=0;bottom=0;right=0;pointerEvents=1;fontSize=16;fontColor=#333333;" vertex="1" parent="e2j2CFbtWnUn_Q3QcPCO-55">
          <mxGeometry x="809" width="265" height="107" as="geometry">
            <mxRectangle width="265" height="107" as="alternateBounds" />
          </mxGeometry>
        </mxCell>
        <mxCell id="e2j2CFbtWnUn_Q3QcPCO-136" value="Обслуживание кредитных процессов" style="shape=partialRectangle;html=1;whiteSpace=wrap;connectable=0;strokeColor=#666666;overflow=hidden;fillColor=#f5f5f5;top=0;left=0;bottom=0;right=0;pointerEvents=1;fontSize=16;fontColor=#333333;" vertex="1" parent="e2j2CFbtWnUn_Q3QcPCO-55">
          <mxGeometry x="1074" width="206" height="107" as="geometry">
            <mxRectangle width="206" height="107" as="alternateBounds" />
          </mxGeometry>
        </mxCell>
        <mxCell id="e2j2CFbtWnUn_Q3QcPCO-143" value="Управление договорами" style="shape=partialRectangle;html=1;whiteSpace=wrap;connectable=0;strokeColor=#666666;overflow=hidden;fillColor=#f5f5f5;top=0;left=0;bottom=0;right=0;pointerEvents=1;fontSize=16;fontColor=#333333;" vertex="1" parent="e2j2CFbtWnUn_Q3QcPCO-55">
          <mxGeometry x="1280" width="210" height="107" as="geometry">
            <mxRectangle width="210" height="107" as="alternateBounds" />
          </mxGeometry>
        </mxCell>
        <mxCell id="e2j2CFbtWnUn_Q3QcPCO-182" style="shape=tableRow;horizontal=0;startSize=0;swimlaneHead=0;swimlaneBody=0;strokeColor=inherit;top=0;left=0;bottom=0;right=0;collapsible=0;dropTarget=0;fillColor=none;points=[[0,0.5],[1,0.5]];portConstraint=eastwest;fontSize=16;" vertex="1" parent="e2j2CFbtWnUn_Q3QcPCO-54">
          <mxGeometry y="137" width="1490" height="111" as="geometry" />
        </mxCell>
        <mxCell id="e2j2CFbtWnUn_Q3QcPCO-183" value="Кол-центр банка «Стандарт»" style="shape=partialRectangle;connectable=0;strokeColor=#666666;overflow=hidden;fillColor=#f5f5f5;top=0;left=0;bottom=0;right=0;pointerEvents=1;fontSize=16;fontColor=default;whiteSpace=wrap;html=1;" vertex="1" parent="e2j2CFbtWnUn_Q3QcPCO-182">
          <mxGeometry width="202" height="111" as="geometry">
            <mxRectangle width="202" height="111" as="alternateBounds" />
          </mxGeometry>
        </mxCell>
        <mxCell id="e2j2CFbtWnUn_Q3QcPCO-184" style="shape=partialRectangle;html=1;whiteSpace=wrap;connectable=0;strokeColor=inherit;overflow=hidden;fillColor=none;top=0;left=0;bottom=0;right=0;pointerEvents=1;fontSize=16;" vertex="1" parent="e2j2CFbtWnUn_Q3QcPCO-182">
          <mxGeometry x="202" width="202" height="111" as="geometry">
            <mxRectangle width="202" height="111" as="alternateBounds" />
          </mxGeometry>
        </mxCell>
        <mxCell id="e2j2CFbtWnUn_Q3QcPCO-185" style="shape=partialRectangle;html=1;whiteSpace=wrap;connectable=0;strokeColor=inherit;overflow=hidden;fillColor=none;top=0;left=0;bottom=0;right=0;pointerEvents=1;fontSize=16;" vertex="1" parent="e2j2CFbtWnUn_Q3QcPCO-182">
          <mxGeometry x="404" width="202" height="111" as="geometry">
            <mxRectangle width="202" height="111" as="alternateBounds" />
          </mxGeometry>
        </mxCell>
        <mxCell id="e2j2CFbtWnUn_Q3QcPCO-186" style="shape=partialRectangle;html=1;whiteSpace=wrap;connectable=0;strokeColor=inherit;overflow=hidden;fillColor=none;top=0;left=0;bottom=0;right=0;pointerEvents=1;fontSize=16;" vertex="1" parent="e2j2CFbtWnUn_Q3QcPCO-182">
          <mxGeometry x="606" width="203" height="111" as="geometry">
            <mxRectangle width="203" height="111" as="alternateBounds" />
          </mxGeometry>
        </mxCell>
        <mxCell id="e2j2CFbtWnUn_Q3QcPCO-187" style="shape=partialRectangle;html=1;whiteSpace=wrap;connectable=0;strokeColor=inherit;overflow=hidden;fillColor=none;top=0;left=0;bottom=0;right=0;pointerEvents=1;fontSize=16;" vertex="1" parent="e2j2CFbtWnUn_Q3QcPCO-182">
          <mxGeometry x="809" width="265" height="111" as="geometry">
            <mxRectangle width="265" height="111" as="alternateBounds" />
          </mxGeometry>
        </mxCell>
        <mxCell id="e2j2CFbtWnUn_Q3QcPCO-188" style="shape=partialRectangle;html=1;whiteSpace=wrap;connectable=0;strokeColor=inherit;overflow=hidden;fillColor=none;top=0;left=0;bottom=0;right=0;pointerEvents=1;fontSize=16;" vertex="1" parent="e2j2CFbtWnUn_Q3QcPCO-182">
          <mxGeometry x="1074" width="206" height="111" as="geometry">
            <mxRectangle width="206" height="111" as="alternateBounds" />
          </mxGeometry>
        </mxCell>
        <mxCell id="e2j2CFbtWnUn_Q3QcPCO-189" style="shape=partialRectangle;html=1;whiteSpace=wrap;connectable=0;strokeColor=inherit;overflow=hidden;fillColor=none;top=0;left=0;bottom=0;right=0;pointerEvents=1;fontSize=16;" vertex="1" parent="e2j2CFbtWnUn_Q3QcPCO-182">
          <mxGeometry x="1280" width="210" height="111" as="geometry">
            <mxRectangle width="210" height="111" as="alternateBounds" />
          </mxGeometry>
        </mxCell>
        <mxCell id="e2j2CFbtWnUn_Q3QcPCO-59" value="" style="shape=tableRow;horizontal=0;startSize=0;swimlaneHead=0;swimlaneBody=0;strokeColor=inherit;top=0;left=0;bottom=0;right=0;collapsible=0;dropTarget=0;fillColor=none;points=[[0,0.5],[1,0.5]];portConstraint=eastwest;fontSize=16;" vertex="1" parent="e2j2CFbtWnUn_Q3QcPCO-54">
          <mxGeometry y="248" width="1490" height="111" as="geometry" />
        </mxCell>
        <mxCell id="e2j2CFbtWnUn_Q3QcPCO-60" value="&lt;span style=&quot;box-sizing: inherit; color: rgba(0, 0, 0, 0.85); font-family: &amp;quot;YS Text&amp;quot;, sans-serif; text-align: left; white-space-collapse: preserve-breaks;&quot;&gt;&lt;font&gt;Управление обслуживанием в сети отделений&lt;/font&gt;&lt;/span&gt;" style="shape=partialRectangle;html=1;whiteSpace=wrap;connectable=0;strokeColor=#666666;overflow=hidden;fillColor=#f5f5f5;top=0;left=0;bottom=0;right=0;pointerEvents=1;fontSize=16;fontColor=#333333;" vertex="1" parent="e2j2CFbtWnUn_Q3QcPCO-59">
          <mxGeometry width="202" height="111" as="geometry">
            <mxRectangle width="202" height="111" as="alternateBounds" />
          </mxGeometry>
        </mxCell>
        <mxCell id="e2j2CFbtWnUn_Q3QcPCO-61" value="" style="shape=partialRectangle;html=1;whiteSpace=wrap;connectable=0;strokeColor=inherit;overflow=hidden;fillColor=none;top=0;left=0;bottom=0;right=0;pointerEvents=1;fontSize=16;" vertex="1" parent="e2j2CFbtWnUn_Q3QcPCO-59">
          <mxGeometry x="202" width="202" height="111" as="geometry">
            <mxRectangle width="202" height="111" as="alternateBounds" />
          </mxGeometry>
        </mxCell>
        <mxCell id="e2j2CFbtWnUn_Q3QcPCO-62" value="" style="shape=partialRectangle;html=1;whiteSpace=wrap;connectable=0;strokeColor=inherit;overflow=hidden;fillColor=none;top=0;left=0;bottom=0;right=0;pointerEvents=1;fontSize=16;" vertex="1" parent="e2j2CFbtWnUn_Q3QcPCO-59">
          <mxGeometry x="404" width="202" height="111" as="geometry">
            <mxRectangle width="202" height="111" as="alternateBounds" />
          </mxGeometry>
        </mxCell>
        <mxCell id="e2j2CFbtWnUn_Q3QcPCO-68" style="shape=partialRectangle;html=1;whiteSpace=wrap;connectable=0;strokeColor=inherit;overflow=hidden;fillColor=none;top=0;left=0;bottom=0;right=0;pointerEvents=1;fontSize=16;" vertex="1" parent="e2j2CFbtWnUn_Q3QcPCO-59">
          <mxGeometry x="606" width="203" height="111" as="geometry">
            <mxRectangle width="203" height="111" as="alternateBounds" />
          </mxGeometry>
        </mxCell>
        <mxCell id="e2j2CFbtWnUn_Q3QcPCO-71" style="shape=partialRectangle;html=1;whiteSpace=wrap;connectable=0;strokeColor=inherit;overflow=hidden;fillColor=none;top=0;left=0;bottom=0;right=0;pointerEvents=1;fontSize=16;" vertex="1" parent="e2j2CFbtWnUn_Q3QcPCO-59">
          <mxGeometry x="809" width="265" height="111" as="geometry">
            <mxRectangle width="265" height="111" as="alternateBounds" />
          </mxGeometry>
        </mxCell>
        <mxCell id="e2j2CFbtWnUn_Q3QcPCO-137" style="shape=partialRectangle;html=1;whiteSpace=wrap;connectable=0;strokeColor=inherit;overflow=hidden;fillColor=none;top=0;left=0;bottom=0;right=0;pointerEvents=1;fontSize=16;" vertex="1" parent="e2j2CFbtWnUn_Q3QcPCO-59">
          <mxGeometry x="1074" width="206" height="111" as="geometry">
            <mxRectangle width="206" height="111" as="alternateBounds" />
          </mxGeometry>
        </mxCell>
        <mxCell id="e2j2CFbtWnUn_Q3QcPCO-144" style="shape=partialRectangle;html=1;whiteSpace=wrap;connectable=0;strokeColor=inherit;overflow=hidden;fillColor=none;top=0;left=0;bottom=0;right=0;pointerEvents=1;fontSize=16;" vertex="1" parent="e2j2CFbtWnUn_Q3QcPCO-59">
          <mxGeometry x="1280" width="210" height="111" as="geometry">
            <mxRectangle width="210" height="111" as="alternateBounds" />
          </mxGeometry>
        </mxCell>
        <mxCell id="e2j2CFbtWnUn_Q3QcPCO-109" style="shape=tableRow;horizontal=0;startSize=0;swimlaneHead=0;swimlaneBody=0;strokeColor=inherit;top=0;left=0;bottom=0;right=0;collapsible=0;dropTarget=0;fillColor=none;points=[[0,0.5],[1,0.5]];portConstraint=eastwest;fontSize=16;" vertex="1" parent="e2j2CFbtWnUn_Q3QcPCO-54">
          <mxGeometry y="359" width="1490" height="105" as="geometry" />
        </mxCell>
        <mxCell id="e2j2CFbtWnUn_Q3QcPCO-110" value="&lt;font&gt;IT-отдел&lt;/font&gt;" style="shape=partialRectangle;html=1;whiteSpace=wrap;connectable=0;strokeColor=#666666;overflow=hidden;fillColor=#f5f5f5;top=0;left=0;bottom=0;right=0;pointerEvents=1;fontSize=16;fontColor=#333333;" vertex="1" parent="e2j2CFbtWnUn_Q3QcPCO-109">
          <mxGeometry width="202" height="105" as="geometry">
            <mxRectangle width="202" height="105" as="alternateBounds" />
          </mxGeometry>
        </mxCell>
        <mxCell id="e2j2CFbtWnUn_Q3QcPCO-111" style="shape=partialRectangle;html=1;whiteSpace=wrap;connectable=0;strokeColor=inherit;overflow=hidden;fillColor=none;top=0;left=0;bottom=0;right=0;pointerEvents=1;fontSize=16;" vertex="1" parent="e2j2CFbtWnUn_Q3QcPCO-109">
          <mxGeometry x="202" width="202" height="105" as="geometry">
            <mxRectangle width="202" height="105" as="alternateBounds" />
          </mxGeometry>
        </mxCell>
        <mxCell id="e2j2CFbtWnUn_Q3QcPCO-112" style="shape=partialRectangle;html=1;whiteSpace=wrap;connectable=0;strokeColor=inherit;overflow=hidden;fillColor=none;top=0;left=0;bottom=0;right=0;pointerEvents=1;fontSize=16;" vertex="1" parent="e2j2CFbtWnUn_Q3QcPCO-109">
          <mxGeometry x="404" width="202" height="105" as="geometry">
            <mxRectangle width="202" height="105" as="alternateBounds" />
          </mxGeometry>
        </mxCell>
        <mxCell id="e2j2CFbtWnUn_Q3QcPCO-113" style="shape=partialRectangle;html=1;whiteSpace=wrap;connectable=0;strokeColor=inherit;overflow=hidden;fillColor=none;top=0;left=0;bottom=0;right=0;pointerEvents=1;fontSize=16;" vertex="1" parent="e2j2CFbtWnUn_Q3QcPCO-109">
          <mxGeometry x="606" width="203" height="105" as="geometry">
            <mxRectangle width="203" height="105" as="alternateBounds" />
          </mxGeometry>
        </mxCell>
        <mxCell id="e2j2CFbtWnUn_Q3QcPCO-114" style="shape=partialRectangle;html=1;whiteSpace=wrap;connectable=0;strokeColor=inherit;overflow=hidden;fillColor=none;top=0;left=0;bottom=0;right=0;pointerEvents=1;fontSize=16;" vertex="1" parent="e2j2CFbtWnUn_Q3QcPCO-109">
          <mxGeometry x="809" width="265" height="105" as="geometry">
            <mxRectangle width="265" height="105" as="alternateBounds" />
          </mxGeometry>
        </mxCell>
        <mxCell id="e2j2CFbtWnUn_Q3QcPCO-139" style="shape=partialRectangle;html=1;whiteSpace=wrap;connectable=0;strokeColor=inherit;overflow=hidden;fillColor=none;top=0;left=0;bottom=0;right=0;pointerEvents=1;fontSize=16;" vertex="1" parent="e2j2CFbtWnUn_Q3QcPCO-109">
          <mxGeometry x="1074" width="206" height="105" as="geometry">
            <mxRectangle width="206" height="105" as="alternateBounds" />
          </mxGeometry>
        </mxCell>
        <mxCell id="e2j2CFbtWnUn_Q3QcPCO-146" style="shape=partialRectangle;html=1;whiteSpace=wrap;connectable=0;strokeColor=inherit;overflow=hidden;fillColor=none;top=0;left=0;bottom=0;right=0;pointerEvents=1;fontSize=16;" vertex="1" parent="e2j2CFbtWnUn_Q3QcPCO-109">
          <mxGeometry x="1280" width="210" height="105" as="geometry">
            <mxRectangle width="210" height="105" as="alternateBounds" />
          </mxGeometry>
        </mxCell>
        <mxCell id="e2j2CFbtWnUn_Q3QcPCO-73" style="shape=tableRow;horizontal=0;startSize=0;swimlaneHead=0;swimlaneBody=0;strokeColor=inherit;top=0;left=0;bottom=0;right=0;collapsible=0;dropTarget=0;fillColor=none;points=[[0,0.5],[1,0.5]];portConstraint=eastwest;fontSize=16;" vertex="1" parent="e2j2CFbtWnUn_Q3QcPCO-54">
          <mxGeometry y="464" width="1490" height="106" as="geometry" />
        </mxCell>
        <mxCell id="e2j2CFbtWnUn_Q3QcPCO-74" value="&lt;span style=&quot;box-sizing: inherit; color: rgba(0, 0, 0, 0.85); font-family: &amp;quot;YS Text&amp;quot;, sans-serif; text-align: left; white-space-collapse: preserve-breaks;&quot;&gt;&lt;font&gt;Управление обслуживанием депозитных продуктов&lt;/font&gt;&lt;/span&gt;" style="shape=partialRectangle;html=1;whiteSpace=wrap;connectable=0;strokeColor=#666666;overflow=hidden;fillColor=#f5f5f5;top=0;left=0;bottom=0;right=0;pointerEvents=1;fontSize=16;fontColor=#333333;" vertex="1" parent="e2j2CFbtWnUn_Q3QcPCO-73">
          <mxGeometry width="202" height="106" as="geometry">
            <mxRectangle width="202" height="106" as="alternateBounds" />
          </mxGeometry>
        </mxCell>
        <mxCell id="e2j2CFbtWnUn_Q3QcPCO-75" style="shape=partialRectangle;html=1;whiteSpace=wrap;connectable=0;strokeColor=inherit;overflow=hidden;fillColor=none;top=0;left=0;bottom=0;right=0;pointerEvents=1;fontSize=16;" vertex="1" parent="e2j2CFbtWnUn_Q3QcPCO-73">
          <mxGeometry x="202" width="202" height="106" as="geometry">
            <mxRectangle width="202" height="106" as="alternateBounds" />
          </mxGeometry>
        </mxCell>
        <mxCell id="e2j2CFbtWnUn_Q3QcPCO-76" style="shape=partialRectangle;html=1;whiteSpace=wrap;connectable=0;strokeColor=inherit;overflow=hidden;fillColor=none;top=0;left=0;bottom=0;right=0;pointerEvents=1;fontSize=16;" vertex="1" parent="e2j2CFbtWnUn_Q3QcPCO-73">
          <mxGeometry x="404" width="202" height="106" as="geometry">
            <mxRectangle width="202" height="106" as="alternateBounds" />
          </mxGeometry>
        </mxCell>
        <mxCell id="e2j2CFbtWnUn_Q3QcPCO-77" style="shape=partialRectangle;html=1;whiteSpace=wrap;connectable=0;strokeColor=inherit;overflow=hidden;fillColor=none;top=0;left=0;bottom=0;right=0;pointerEvents=1;fontSize=16;" vertex="1" parent="e2j2CFbtWnUn_Q3QcPCO-73">
          <mxGeometry x="606" width="203" height="106" as="geometry">
            <mxRectangle width="203" height="106" as="alternateBounds" />
          </mxGeometry>
        </mxCell>
        <mxCell id="e2j2CFbtWnUn_Q3QcPCO-78" style="shape=partialRectangle;html=1;whiteSpace=wrap;connectable=0;strokeColor=inherit;overflow=hidden;fillColor=none;top=0;left=0;bottom=0;right=0;pointerEvents=1;fontSize=16;" vertex="1" parent="e2j2CFbtWnUn_Q3QcPCO-73">
          <mxGeometry x="809" width="265" height="106" as="geometry">
            <mxRectangle width="265" height="106" as="alternateBounds" />
          </mxGeometry>
        </mxCell>
        <mxCell id="e2j2CFbtWnUn_Q3QcPCO-140" style="shape=partialRectangle;html=1;whiteSpace=wrap;connectable=0;strokeColor=inherit;overflow=hidden;fillColor=none;top=0;left=0;bottom=0;right=0;pointerEvents=1;fontSize=16;" vertex="1" parent="e2j2CFbtWnUn_Q3QcPCO-73">
          <mxGeometry x="1074" width="206" height="106" as="geometry">
            <mxRectangle width="206" height="106" as="alternateBounds" />
          </mxGeometry>
        </mxCell>
        <mxCell id="e2j2CFbtWnUn_Q3QcPCO-147" style="shape=partialRectangle;html=1;whiteSpace=wrap;connectable=0;strokeColor=inherit;overflow=hidden;fillColor=none;top=0;left=0;bottom=0;right=0;pointerEvents=1;fontSize=16;" vertex="1" parent="e2j2CFbtWnUn_Q3QcPCO-73">
          <mxGeometry x="1280" width="210" height="106" as="geometry">
            <mxRectangle width="210" height="106" as="alternateBounds" />
          </mxGeometry>
        </mxCell>
        <mxCell id="e2j2CFbtWnUn_Q3QcPCO-79" style="shape=tableRow;horizontal=0;startSize=0;swimlaneHead=0;swimlaneBody=0;strokeColor=inherit;top=0;left=0;bottom=0;right=0;collapsible=0;dropTarget=0;fillColor=none;points=[[0,0.5],[1,0.5]];portConstraint=eastwest;fontSize=16;" vertex="1" parent="e2j2CFbtWnUn_Q3QcPCO-54">
          <mxGeometry y="570" width="1490" height="105" as="geometry" />
        </mxCell>
        <mxCell id="e2j2CFbtWnUn_Q3QcPCO-80" value="&lt;span style=&quot;box-sizing: inherit; color: rgba(0, 0, 0, 0.85); font-family: &amp;quot;YS Text&amp;quot;, sans-serif; font-style: normal; font-variant-ligatures: normal; font-variant-caps: normal; letter-spacing: normal; orphans: 2; text-align: left; text-indent: 0px; text-transform: none; widows: 2; word-spacing: 0px; -webkit-text-stroke-width: 0px; white-space: pre-line; text-decoration-thickness: initial; text-decoration-style: initial; text-decoration-color: initial;&quot;&gt;&lt;font&gt;Управление обслуживанием кредитных продуктов&lt;/font&gt;&lt;/span&gt;" style="shape=partialRectangle;html=1;whiteSpace=wrap;connectable=0;strokeColor=#666666;overflow=hidden;fillColor=#f5f5f5;top=0;left=0;bottom=0;right=0;pointerEvents=1;fontSize=16;fontColor=#333333;" vertex="1" parent="e2j2CFbtWnUn_Q3QcPCO-79">
          <mxGeometry width="202" height="105" as="geometry">
            <mxRectangle width="202" height="105" as="alternateBounds" />
          </mxGeometry>
        </mxCell>
        <mxCell id="e2j2CFbtWnUn_Q3QcPCO-81" style="shape=partialRectangle;html=1;whiteSpace=wrap;connectable=0;strokeColor=inherit;overflow=hidden;fillColor=none;top=0;left=0;bottom=0;right=0;pointerEvents=1;fontSize=16;" vertex="1" parent="e2j2CFbtWnUn_Q3QcPCO-79">
          <mxGeometry x="202" width="202" height="105" as="geometry">
            <mxRectangle width="202" height="105" as="alternateBounds" />
          </mxGeometry>
        </mxCell>
        <mxCell id="e2j2CFbtWnUn_Q3QcPCO-82" style="shape=partialRectangle;html=1;whiteSpace=wrap;connectable=0;strokeColor=inherit;overflow=hidden;fillColor=none;top=0;left=0;bottom=0;right=0;pointerEvents=1;fontSize=16;" vertex="1" parent="e2j2CFbtWnUn_Q3QcPCO-79">
          <mxGeometry x="404" width="202" height="105" as="geometry">
            <mxRectangle width="202" height="105" as="alternateBounds" />
          </mxGeometry>
        </mxCell>
        <mxCell id="e2j2CFbtWnUn_Q3QcPCO-83" style="shape=partialRectangle;html=1;whiteSpace=wrap;connectable=0;strokeColor=inherit;overflow=hidden;fillColor=none;top=0;left=0;bottom=0;right=0;pointerEvents=1;fontSize=16;" vertex="1" parent="e2j2CFbtWnUn_Q3QcPCO-79">
          <mxGeometry x="606" width="203" height="105" as="geometry">
            <mxRectangle width="203" height="105" as="alternateBounds" />
          </mxGeometry>
        </mxCell>
        <mxCell id="e2j2CFbtWnUn_Q3QcPCO-84" style="shape=partialRectangle;html=1;whiteSpace=wrap;connectable=0;strokeColor=inherit;overflow=hidden;fillColor=none;top=0;left=0;bottom=0;right=0;pointerEvents=1;fontSize=16;" vertex="1" parent="e2j2CFbtWnUn_Q3QcPCO-79">
          <mxGeometry x="809" width="265" height="105" as="geometry">
            <mxRectangle width="265" height="105" as="alternateBounds" />
          </mxGeometry>
        </mxCell>
        <mxCell id="e2j2CFbtWnUn_Q3QcPCO-141" style="shape=partialRectangle;html=1;whiteSpace=wrap;connectable=0;strokeColor=inherit;overflow=hidden;fillColor=none;top=0;left=0;bottom=0;right=0;pointerEvents=1;fontSize=16;" vertex="1" parent="e2j2CFbtWnUn_Q3QcPCO-79">
          <mxGeometry x="1074" width="206" height="105" as="geometry">
            <mxRectangle width="206" height="105" as="alternateBounds" />
          </mxGeometry>
        </mxCell>
        <mxCell id="e2j2CFbtWnUn_Q3QcPCO-148" style="shape=partialRectangle;html=1;whiteSpace=wrap;connectable=0;strokeColor=inherit;overflow=hidden;fillColor=none;top=0;left=0;bottom=0;right=0;pointerEvents=1;fontSize=16;" vertex="1" parent="e2j2CFbtWnUn_Q3QcPCO-79">
          <mxGeometry x="1280" width="210" height="105" as="geometry">
            <mxRectangle width="210" height="105" as="alternateBounds" />
          </mxGeometry>
        </mxCell>
        <mxCell id="e2j2CFbtWnUn_Q3QcPCO-85" style="shape=tableRow;horizontal=0;startSize=0;swimlaneHead=0;swimlaneBody=0;strokeColor=inherit;top=0;left=0;bottom=0;right=0;collapsible=0;dropTarget=0;fillColor=none;points=[[0,0.5],[1,0.5]];portConstraint=eastwest;fontSize=16;" vertex="1" parent="e2j2CFbtWnUn_Q3QcPCO-54">
          <mxGeometry y="675" width="1490" height="105" as="geometry" />
        </mxCell>
        <mxCell id="e2j2CFbtWnUn_Q3QcPCO-86" value="&lt;span style=&quot;box-sizing: inherit; color: rgba(0, 0, 0, 0.85); font-family: &amp;quot;YS Text&amp;quot;, sans-serif; text-align: left; white-space-collapse: preserve-breaks;&quot;&gt;&lt;font&gt;Команда цифровой трансформации розничного бизнеса&lt;/font&gt;&lt;/span&gt;" style="shape=partialRectangle;html=1;whiteSpace=wrap;connectable=0;strokeColor=#666666;overflow=hidden;fillColor=#f5f5f5;top=0;left=0;bottom=0;right=0;pointerEvents=1;fontSize=16;fontColor=#333333;" vertex="1" parent="e2j2CFbtWnUn_Q3QcPCO-85">
          <mxGeometry width="202" height="105" as="geometry">
            <mxRectangle width="202" height="105" as="alternateBounds" />
          </mxGeometry>
        </mxCell>
        <mxCell id="e2j2CFbtWnUn_Q3QcPCO-87" style="shape=partialRectangle;html=1;whiteSpace=wrap;connectable=0;strokeColor=inherit;overflow=hidden;fillColor=none;top=0;left=0;bottom=0;right=0;pointerEvents=1;fontSize=16;" vertex="1" parent="e2j2CFbtWnUn_Q3QcPCO-85">
          <mxGeometry x="202" width="202" height="105" as="geometry">
            <mxRectangle width="202" height="105" as="alternateBounds" />
          </mxGeometry>
        </mxCell>
        <mxCell id="e2j2CFbtWnUn_Q3QcPCO-88" style="shape=partialRectangle;html=1;whiteSpace=wrap;connectable=0;strokeColor=inherit;overflow=hidden;fillColor=none;top=0;left=0;bottom=0;right=0;pointerEvents=1;fontSize=16;" vertex="1" parent="e2j2CFbtWnUn_Q3QcPCO-85">
          <mxGeometry x="404" width="202" height="105" as="geometry">
            <mxRectangle width="202" height="105" as="alternateBounds" />
          </mxGeometry>
        </mxCell>
        <mxCell id="e2j2CFbtWnUn_Q3QcPCO-89" style="shape=partialRectangle;html=1;whiteSpace=wrap;connectable=0;strokeColor=inherit;overflow=hidden;fillColor=none;top=0;left=0;bottom=0;right=0;pointerEvents=1;fontSize=16;" vertex="1" parent="e2j2CFbtWnUn_Q3QcPCO-85">
          <mxGeometry x="606" width="203" height="105" as="geometry">
            <mxRectangle width="203" height="105" as="alternateBounds" />
          </mxGeometry>
        </mxCell>
        <mxCell id="e2j2CFbtWnUn_Q3QcPCO-90" style="shape=partialRectangle;html=1;whiteSpace=wrap;connectable=0;strokeColor=inherit;overflow=hidden;fillColor=none;top=0;left=0;bottom=0;right=0;pointerEvents=1;fontSize=16;" vertex="1" parent="e2j2CFbtWnUn_Q3QcPCO-85">
          <mxGeometry x="809" width="265" height="105" as="geometry">
            <mxRectangle width="265" height="105" as="alternateBounds" />
          </mxGeometry>
        </mxCell>
        <mxCell id="e2j2CFbtWnUn_Q3QcPCO-142" style="shape=partialRectangle;html=1;whiteSpace=wrap;connectable=0;strokeColor=inherit;overflow=hidden;fillColor=none;top=0;left=0;bottom=0;right=0;pointerEvents=1;fontSize=16;" vertex="1" parent="e2j2CFbtWnUn_Q3QcPCO-85">
          <mxGeometry x="1074" width="206" height="105" as="geometry">
            <mxRectangle width="206" height="105" as="alternateBounds" />
          </mxGeometry>
        </mxCell>
        <mxCell id="e2j2CFbtWnUn_Q3QcPCO-149" style="shape=partialRectangle;html=1;whiteSpace=wrap;connectable=0;strokeColor=inherit;overflow=hidden;fillColor=none;top=0;left=0;bottom=0;right=0;pointerEvents=1;fontSize=16;" vertex="1" parent="e2j2CFbtWnUn_Q3QcPCO-85">
          <mxGeometry x="1280" width="210" height="105" as="geometry">
            <mxRectangle width="210" height="105" as="alternateBounds" />
          </mxGeometry>
        </mxCell>
        <mxCell id="e2j2CFbtWnUn_Q3QcPCO-158" value="&lt;div style=&quot;&quot;&gt;&lt;span&gt;&lt;font style=&quot;font-size: 16px;&quot;&gt;&lt;span style=&quot;box-sizing: inherit; color: rgba(0, 0, 0, 0.85); font-family: &amp;quot;YS Text&amp;quot;, sans-serif; white-space-collapse: preserve-breaks;&quot;&gt;&lt;font style=&quot;&quot;&gt;Система кол-центра&amp;nbsp;&lt;/font&gt;&lt;/span&gt;&lt;/font&gt;&lt;/span&gt;&lt;/div&gt;" style="rounded=1;whiteSpace=wrap;html=1;fillColor=#ffe6cc;strokeColor=#d79b00;align=center;" vertex="1" parent="1">
          <mxGeometry x="190" y="300" width="170" height="80" as="geometry" />
        </mxCell>
        <mxCell id="e2j2CFbtWnUn_Q3QcPCO-159" value="&lt;span style=&quot;box-sizing: inherit; color: rgba(0, 0, 0, 0.85); font-family: &amp;quot;YS Text&amp;quot;, sans-serif; font-style: normal; font-variant-ligatures: normal; font-variant-caps: normal; letter-spacing: normal; orphans: 2; text-align: left; text-indent: 0px; text-transform: none; widows: 2; word-spacing: 0px; -webkit-text-stroke-width: 0px; white-space: pre-line; text-decoration-thickness: initial; text-decoration-style: initial; text-decoration-color: initial;&quot;&gt;&lt;font style=&quot;font-size: 16px;&quot;&gt;СМС-шлюз&lt;/font&gt;&lt;/span&gt;" style="rounded=1;whiteSpace=wrap;html=1;fillColor=#d5e8d4;strokeColor=#82b366;" vertex="1" parent="1">
          <mxGeometry x="385" y="520" width="55" height="190" as="geometry" />
        </mxCell>
        <mxCell id="e2j2CFbtWnUn_Q3QcPCO-171" value="&lt;div style=&quot;text-align: left;&quot;&gt;&lt;font style=&quot;font-size: 16px;&quot;&gt;Excel&lt;/font&gt;&lt;/div&gt;" style="rounded=1;whiteSpace=wrap;html=1;fillColor=#fff2cc;strokeColor=#d6b656;" vertex="1" parent="1">
          <mxGeometry x="-20" y="405" width="70" height="30" as="geometry" />
        </mxCell>
        <mxCell id="e2j2CFbtWnUn_Q3QcPCO-172" value="&lt;div style=&quot;text-align: left;&quot;&gt;&lt;span style=&quot;box-sizing: inherit; color: rgba(0, 0, 0, 0.85); font-family: &amp;quot;YS Text&amp;quot;, sans-serif; white-space-collapse: preserve-breaks;&quot;&gt;&lt;font style=&quot;font-size: 16px;&quot;&gt;Интернет-банк&lt;/font&gt;&lt;/span&gt;&lt;/div&gt;" style="rounded=1;whiteSpace=wrap;html=1;fillColor=#e1d5e7;strokeColor=#9673a6;" vertex="1" parent="1">
          <mxGeometry x="590" y="850" width="125" height="60" as="geometry" />
        </mxCell>
        <mxCell id="e2j2CFbtWnUn_Q3QcPCO-177" value="&lt;div style=&quot;text-align: left;&quot;&gt;&lt;span style=&quot;box-sizing: inherit; color: rgba(0, 0, 0, 0.85); font-family: &amp;quot;YS Text&amp;quot;, sans-serif; white-space-collapse: preserve-breaks;&quot;&gt;&lt;font style=&quot;font-size: 16px;&quot;&gt;Сайт&lt;/font&gt;&lt;/span&gt;&lt;/div&gt;" style="rounded=1;whiteSpace=wrap;html=1;fillColor=#dae8fc;strokeColor=#6c8ebf;" vertex="1" parent="1">
          <mxGeometry x="720" y="850" width="110" height="60" as="geometry" />
        </mxCell>
        <mxCell id="e2j2CFbtWnUn_Q3QcPCO-181" value="&lt;span style=&quot;box-sizing: inherit; color: rgba(0, 0, 0, 0.85); font-family: &amp;quot;YS Text&amp;quot;, sans-serif; font-style: normal; font-variant-ligatures: normal; font-variant-caps: normal; letter-spacing: normal; orphans: 2; text-align: left; text-indent: 0px; text-transform: none; widows: 2; word-spacing: 0px; -webkit-text-stroke-width: 0px; white-space: pre-line; text-decoration-thickness: initial; text-decoration-style: initial; text-decoration-color: initial;&quot;&gt;&lt;font style=&quot;font-size: 16px;&quot;&gt;Автоматизированная банковская система (АБС)&lt;/font&gt;&lt;/span&gt;" style="rounded=1;whiteSpace=wrap;html=1;fillColor=#f8cecc;strokeColor=#b85450;" vertex="1" parent="1">
          <mxGeometry x="-20" y="440" width="190" height="230" as="geometry" />
        </mxCell>
        <mxCell id="e2j2CFbtWnUn_Q3QcPCO-192" value="&lt;span style=&quot;color: rgba(0, 0, 0, 0.85); font-family: &amp;quot;YS Text&amp;quot;, sans-serif; font-size: 16px; text-align: left; white-space-collapse: preserve-breaks;&quot;&gt;АБС&lt;/span&gt;" style="rounded=1;whiteSpace=wrap;html=1;fillColor=#f8cecc;strokeColor=#b85450;" vertex="1" parent="1">
          <mxGeometry x="590" y="520" width="80" height="290" as="geometry" />
        </mxCell>
        <mxCell id="e2j2CFbtWnUn_Q3QcPCO-194" value="&lt;span style=&quot;color: rgba(0, 0, 0, 0.85); font-family: &amp;quot;YS Text&amp;quot;, sans-serif; font-size: 16px; text-align: left; white-space-collapse: preserve-breaks;&quot;&gt;АБС&lt;/span&gt;" style="rounded=1;whiteSpace=wrap;html=1;fillColor=#f8cecc;strokeColor=#b85450;" vertex="1" parent="1">
          <mxGeometry x="1060" y="405" width="180" height="90" as="geometry" />
        </mxCell>
        <mxCell id="e2j2CFbtWnUn_Q3QcPCO-195" value="&lt;span style=&quot;color: rgba(0, 0, 0, 0.85); font-family: &amp;quot;YS Text&amp;quot;, sans-serif; font-size: 16px; text-align: left; white-space-collapse: preserve-breaks;&quot;&gt;АБС&lt;/span&gt;" style="rounded=1;whiteSpace=wrap;html=1;fillColor=#f8cecc;strokeColor=#b85450;" vertex="1" parent="1">
          <mxGeometry x="180" y="560" width="190" height="150" as="geometry" />
        </mxCell>
        <mxCell id="e2j2CFbtWnUn_Q3QcPCO-197" value="&lt;div style=&quot;&quot;&gt;&lt;span&gt;&lt;font style=&quot;font-size: 16px;&quot;&gt;&lt;span style=&quot;box-sizing: inherit; color: rgba(0, 0, 0, 0.85); font-family: &amp;quot;YS Text&amp;quot;, sans-serif; white-space-collapse: preserve-breaks;&quot;&gt;&lt;font style=&quot;&quot;&gt;Система кол-центра&amp;nbsp;&lt;/font&gt;&lt;/span&gt;&lt;/font&gt;&lt;/span&gt;&lt;/div&gt;" style="rounded=1;whiteSpace=wrap;html=1;fillColor=#ffe6cc;strokeColor=#d79b00;align=center;" vertex="1" parent="1">
          <mxGeometry x="190" y="520" width="170" height="30" as="geometry" />
        </mxCell>
        <mxCell id="e2j2CFbtWnUn_Q3QcPCO-200" value="&lt;span style=&quot;color: rgba(0, 0, 0, 0.85); font-family: &amp;quot;YS Text&amp;quot;, sans-serif; font-size: 16px; text-align: left; white-space-collapse: preserve-breaks;&quot;&gt;АБС&lt;/span&gt;" style="rounded=1;whiteSpace=wrap;html=1;fillColor=#f8cecc;strokeColor=#b85450;" vertex="1" parent="1">
          <mxGeometry x="450" y="520" width="110" height="190" as="geometry" />
        </mxCell>
        <mxCell id="e2j2CFbtWnUn_Q3QcPCO-201" value="&lt;div style=&quot;text-align: left;&quot;&gt;&lt;span style=&quot;box-sizing: inherit; color: rgba(0, 0, 0, 0.85); font-family: &amp;quot;YS Text&amp;quot;, sans-serif; white-space-collapse: preserve-breaks;&quot;&gt;&lt;font style=&quot;font-size: 16px;&quot;&gt;Сайт&lt;/font&gt;&lt;/span&gt;&lt;/div&gt;" style="rounded=1;whiteSpace=wrap;html=1;fillColor=#dae8fc;strokeColor=#6c8ebf;" vertex="1" parent="1">
          <mxGeometry x="680" y="520" width="110" height="30" as="geometry" />
        </mxCell>
        <mxCell id="e2j2CFbtWnUn_Q3QcPCO-202" value="&lt;div style=&quot;text-align: left;&quot;&gt;&lt;span style=&quot;box-sizing: inherit; color: rgba(0, 0, 0, 0.85); font-family: &amp;quot;YS Text&amp;quot;, sans-serif; white-space-collapse: preserve-breaks;&quot;&gt;&lt;font style=&quot;font-size: 16px;&quot;&gt;Интернет-банк&lt;/font&gt;&lt;/span&gt;&lt;/div&gt;" style="rounded=1;whiteSpace=wrap;html=1;fillColor=#e1d5e7;strokeColor=#9673a6;" vertex="1" parent="1">
          <mxGeometry x="675" y="550" width="120" height="30" as="geometry" />
        </mxCell>
        <mxCell id="e2j2CFbtWnUn_Q3QcPCO-203" value="&lt;span style=&quot;box-sizing: inherit; color: rgba(0, 0, 0, 0.85); font-family: &amp;quot;YS Text&amp;quot;, sans-serif; font-style: normal; font-variant-ligatures: normal; font-variant-caps: normal; letter-spacing: normal; orphans: 2; text-align: left; text-indent: 0px; text-transform: none; widows: 2; word-spacing: 0px; -webkit-text-stroke-width: 0px; white-space: pre-line; text-decoration-thickness: initial; text-decoration-style: initial; text-decoration-color: initial;&quot;&gt;&lt;font style=&quot;font-size: 16px;&quot;&gt;СМС-шлюз&lt;/font&gt;&lt;/span&gt;" style="rounded=1;whiteSpace=wrap;html=1;fillColor=#d5e8d4;strokeColor=#82b366;" vertex="1" parent="1">
          <mxGeometry x="690" y="580" width="90" height="30" as="geometry" />
        </mxCell>
        <mxCell id="e2j2CFbtWnUn_Q3QcPCO-206" value="&lt;div style=&quot;text-align: left;&quot;&gt;&lt;font style=&quot;font-size: 16px;&quot;&gt;Email&amp;nbsp;&lt;/font&gt;&lt;/div&gt;" style="rounded=1;whiteSpace=wrap;html=1;fillColor=#fff2cc;strokeColor=#d6b656;" vertex="1" parent="1">
          <mxGeometry x="-25" y="680" width="80" height="30" as="geometry" />
        </mxCell>
        <mxCell id="e2j2CFbtWnUn_Q3QcPCO-207" value="&lt;div style=&quot;text-align: left;&quot;&gt;&lt;font style=&quot;font-size: 16px;&quot;&gt;Email&amp;nbsp;&lt;/font&gt;&lt;/div&gt;" style="rounded=1;whiteSpace=wrap;html=1;fillColor=#fff2cc;strokeColor=#d6b656;" vertex="1" parent="1">
          <mxGeometry x="70" y="405" width="80" height="30" as="geometry" />
        </mxCell>
        <mxCell id="e2j2CFbtWnUn_Q3QcPCO-208" value="&lt;div style=&quot;text-align: left;&quot;&gt;&lt;font style=&quot;font-size: 16px;&quot;&gt;Excel&lt;/font&gt;&lt;/div&gt;" style="rounded=1;whiteSpace=wrap;html=1;fillColor=#fff2cc;strokeColor=#d6b656;" vertex="1" parent="1">
          <mxGeometry x="80" y="680" width="70" height="30" as="geometry" />
        </mxCell>
        <mxCell id="e2j2CFbtWnUn_Q3QcPCO-211" value="&lt;span style=&quot;color: rgba(0, 0, 0, 0.85); font-family: &amp;quot;YS Text&amp;quot;, sans-serif; font-size: 16px; text-align: left; white-space-collapse: preserve-breaks;&quot;&gt;АБС&lt;/span&gt;" style="rounded=1;whiteSpace=wrap;html=1;fillColor=#f8cecc;strokeColor=#b85450;" vertex="1" parent="1">
          <mxGeometry x="-20" y="730" width="390" height="60" as="geometry" />
        </mxCell>
        <mxCell id="e2j2CFbtWnUn_Q3QcPCO-212" value="&lt;div style=&quot;text-align: left;&quot;&gt;&lt;font style=&quot;font-size: 16px;&quot;&gt;Email&amp;nbsp;&lt;/font&gt;&lt;/div&gt;" style="rounded=1;whiteSpace=wrap;html=1;fillColor=#fff2cc;strokeColor=#d6b656;" vertex="1" parent="1">
          <mxGeometry x="70" y="790" width="210" height="30" as="geometry" />
        </mxCell>
        <mxCell id="e2j2CFbtWnUn_Q3QcPCO-216" value="&lt;div style=&quot;text-align: left;&quot;&gt;&lt;font style=&quot;font-size: 16px;&quot;&gt;Email&amp;nbsp;&lt;/font&gt;&lt;/div&gt;" style="rounded=1;whiteSpace=wrap;html=1;fillColor=#fff2cc;strokeColor=#d6b656;" vertex="1" parent="1">
          <mxGeometry x="680" y="660" width="60" height="120" as="geometry" />
        </mxCell>
        <mxCell id="e2j2CFbtWnUn_Q3QcPCO-217" value="&lt;div style=&quot;text-align: left;&quot;&gt;&lt;font style=&quot;font-size: 16px;&quot;&gt;Excel&lt;/font&gt;&lt;/div&gt;" style="rounded=1;whiteSpace=wrap;html=1;fillColor=#fff2cc;strokeColor=#d6b656;" vertex="1" parent="1">
          <mxGeometry x="760" y="680" width="70" height="30" as="geometry" />
        </mxCell>
      </root>
    </mxGraphModel>
  </diagram>
</mxfile>
